<?xml version="1.0" encoding="utf-8"?>
<!-- Generator: Adobe Illustrator 17.1.0, SVG Export Plug-In . SVG Version: 6.00 Build 0)  -->
<!DOCTYPE svg PUBLIC "-//W3C//DTD SVG 1.1//EN" "http://www.w3.org/Graphics/SVG/1.1/DTD/svg11.dtd">
<svg version="1.1" id="Layer_1" xmlns="http://www.w3.org/2000/svg" xmlns:xlink="http://www.w3.org/1999/xlink" x="0px" y="0px"
	 viewBox="0 0 100 100" enable-background="new 0 0 100 100" xml:space="preserve">
<g>
	<g>
		<g>
			<g>
				<path fill="#D0F54B" d="M65.8,64.4c-0.4,0-0.8-0.1-1.1-0.4c-0.7-0.6-0.8-1.7-0.2-2.4L74.4,50l-9.8-11.6
					c-0.6-0.7-0.5-1.8,0.2-2.4c0.7-0.6,1.8-0.5,2.4,0.2l10.7,12.7c0.5,0.6,0.5,1.6,0,2.2L67.2,63.8C66.8,64.2,66.3,64.4,65.8,64.4z"
					/>
			</g>
		</g>
	</g>
	<g>
		<g>
			<g>
				<path fill="#D0F54B" d="M34.2,64.4c-0.5,0-1-0.2-1.3-0.6L22.1,51.1c-0.5-0.6-0.5-1.6,0-2.2l10.7-12.7c0.6-0.7,1.7-0.8,2.4-0.2
					s0.8,1.7,0.2,2.4L25.6,50l9.8,11.6c0.6,0.7,0.5,1.8-0.2,2.4C34.9,64.3,34.5,64.4,34.2,64.4z"/>
			</g>
		</g>
	</g>
	<g>
		<path fill="#D0F54B" d="M42,64.4c-0.3,0-0.6-0.1-0.9-0.3c-0.8-0.5-1-1.6-0.5-2.4l15.9-25.5c0.5-0.8,1.6-1,2.4-0.5
			c0.8,0.5,1,1.6,0.5,2.4L43.5,63.6C43.2,64.2,42.6,64.4,42,64.4z"/>
	</g>
</g>
</svg>
