<?xml version="1.0" encoding="utf-8"?>
<!-- Generator: Adobe Illustrator 17.1.0, SVG Export Plug-In . SVG Version: 6.00 Build 0)  -->
<!DOCTYPE svg PUBLIC "-//W3C//DTD SVG 1.1//EN" "http://www.w3.org/Graphics/SVG/1.1/DTD/svg11.dtd">
<svg version="1.1" id="Layer_1" xmlns="http://www.w3.org/2000/svg" xmlns:xlink="http://www.w3.org/1999/xlink" x="0px" y="0px"
	 viewBox="0 0 20 20" enable-background="new 0 0 20 20" xml:space="preserve">
<g>
	<g>
		<g>
			<g>
				<path fill="#7F8C8D" d="M13.2,12.9c-0.1,0-0.2,0-0.2-0.1c-0.1-0.1-0.2-0.3,0-0.5l2-2.3l-2-2.3c-0.1-0.1-0.1-0.4,0-0.5
					c0.1-0.1,0.4-0.1,0.5,0l2.1,2.5c0.1,0.1,0.1,0.3,0,0.4l-2.1,2.5C13.4,12.8,13.3,12.9,13.2,12.9z"/>
			</g>
		</g>
	</g>
	<g>
		<g>
			<g>
				<path fill="#7F8C8D" d="M6.8,12.9c-0.1,0-0.2,0-0.3-0.1l-2.2-2.5c-0.1-0.1-0.1-0.3,0-0.4l2.1-2.5c0.1-0.1,0.3-0.2,0.5,0
					c0.1,0.1,0.2,0.3,0,0.5l-2,2.3l2,2.3c0.1,0.1,0.1,0.4,0,0.5C7,12.9,6.9,12.9,6.8,12.9z"/>
			</g>
		</g>
	</g>
	<g>
		<path fill="#7F8C8D" d="M8.4,12.9c-0.1,0-0.1,0-0.2-0.1c-0.2-0.1-0.2-0.3-0.1-0.5l3.2-5.1c0.1-0.2,0.3-0.2,0.5-0.1
			c0.2,0.1,0.2,0.3,0.1,0.5l-3.2,5.1C8.6,12.8,8.5,12.9,8.4,12.9z"/>
	</g>
</g>
</svg>
